<?xml version="1.0" encoding="utf-8"?>
<!-- Svg Vector Icons : http://www.onlinewebfonts.com/icon -->
<!DOCTYPE svg PUBLIC "-//W3C//DTD SVG 1.1//EN" "http://www.w3.org/Graphics/SVG/1.1/DTD/svg11.dtd">
<svg version="1.1" xmlns="http://www.w3.org/2000/svg" xmlns:xlink="http://www.w3.org/1999/xlink" x="0px" y="0px" viewBox="0 0 256 256" enable-background="new 0 0 256 256" xml:space="preserve">
<metadata> Svg Vector Icons : http://www.onlinewebfonts.com/icon </metadata>
<g><g><g><path fill="#000000" d="M93.7,17.8C83.3,20,74.9,24.6,67.4,32.1c-19.7,19.8-20.2,49.8-1.1,70.1c17.5,18.7,44.1,21.7,65.3,7.5c6.1-4.1,13.7-12.8,17.1-19.6c11.8-23.2,3.4-51.4-19.4-65.6C118.9,17.9,105.2,15.3,93.7,17.8z M113.8,27.9c8,2,16.5,7.4,21.5,13.6c2.7,3.3,6.5,10.8,7.6,14.9c3,11.7,1.2,24.4-5.1,34.1c-5.3,8.2-12.8,13.8-22.6,16.8c-3.7,1.1-4.7,1.2-11.9,1.2s-8.2-0.1-11.9-1.2c-7.6-2.4-13.4-5.9-18.4-11.3c-7.1-7.8-10.6-17-10.6-28.2c0-10.2,2.8-18.5,8.7-26.1c5.8-7.3,15.8-13,25.7-14.6C100.9,26.4,109.5,26.8,113.8,27.9z"/><path fill="#000000" d="M79.5,40.9c-2,0.6-3.4,2.4-3.4,4.7c0,1.8,0.2,2.1,12.5,14.4l12.5,12.5h2.1h2.1l8.3-8.4c8.1-8.1,8.3-8.4,8.3-10.2c0-3.3-3-5.6-6.2-4.7c-0.9,0.2-3.4,2.4-6.9,6l-5.5,5.5L93.5,51C83.4,40.9,82.3,40.2,79.5,40.9z"/><path fill="#000000" d="M165.8,92.5c-6.3,0.1-7.4,0.6-8.4,2.9c-0.8,1.8-0.2,4.2,1.2,5.6c1,0.9,1.8,1.1,4.8,1.3l3.6,0.1v44.3v44.3h-64.2H38.8v-8c0-7.3-0.1-8.1-0.9-9.2c-1.4-1.8-3.7-2.4-5.7-1.6c-3,1.3-3.1,1.6-3.1,13.8c0,12,0.2,13,2.5,14.1c0.6,0.3,1.7,0.6,2.3,0.6h1.2v8.1v8.1l1.3,1.5l1.3,1.5l6,0.1l6,0.2l0.7,2.2c2.7,8,11.4,15.3,19.7,16.6c10.6,1.6,21.9-5.4,26-16.3l0.8-2.2h40.8c38.5,0,40.8,0,41,0.8c0.1,0.4,1,2.3,1.8,4.1c4.3,9,15.1,15,24.6,13.5c7.4-1.2,15.1-6.8,18.3-13.5c0.9-1.8,1.7-3.7,1.8-4.2c0.2-0.7,1.1-0.8,8.4-0.8c9,0,10.2-0.3,11.5-2.8c0.6-1.2,0.7-5.3,0.6-33.1l-0.1-31.7l-1.3-2.8c-1.8-3.8-3.7-5.5-13.1-11.9c-4.3-3-8.1-5.6-8.4-6c-0.2-0.3-3.9-8.5-8.1-18.1c-8.8-20.3-8.4-19.5-10-20.6c-1.1-0.8-2.5-0.9-17.3-1C178.8,92.4,169,92.4,165.8,92.5z M206.9,120.2c4.2,9.7,8.1,18.1,8.5,18.6c0.4,0.5,4.9,3.7,10.1,7.2c5.1,3.5,9.6,6.6,9.9,7c0.4,0.6,0.6,5.2,0.6,19.3v18.6l-29.4-0.1l-29.5-0.1l-0.1-44.2l-0.1-44.2l11.1,0.1l11.2,0.1L206.9,120.2z M52.8,203.2c-0.9,1.4-1.9,3.6-2.4,4.9l-0.7,2.3l-2.4-0.1l-2.4-0.1l-0.1-4.8l-0.1-4.7h4.8h4.8L52.8,203.2z M80,202.1c2.9,1.2,6.1,4.8,7,7.9c1.5,5,0.5,11-2.5,14.6c-0.7,0.9-2.4,2.3-3.8,3c-2.1,1.1-3.2,1.4-6.4,1.5c-6.7,0.3-11.2-2.2-13.8-7.7c-1-2.2-1.2-3.2-1.2-6.5c0-5.8,2.1-9.7,6.5-12.3C69.5,200.5,75.6,200.2,80,202.1z M182.8,200.8c0,0.1-0.6,1.2-1.3,2.4c-0.7,1.2-1.8,3.4-2.2,4.8l-0.8,2.7l-40.6-0.1l-40.5-0.1l-1.1-2.9c-0.6-1.6-1.6-3.7-2.3-4.7c-0.6-1-1.2-1.9-1.2-2.1s20.3-0.2,45-0.2C162.5,200.6,182.8,200.7,182.8,200.8z M208.7,202c4.5,2,7.3,6.4,7.8,12c0.4,6.1-2.3,11.3-7.2,13.7c-2.4,1.2-3.2,1.3-7.1,1.3s-4.7-0.1-7.1-1.3c-9.6-4.7-9.6-20.5-0.1-25.3C198.7,200.5,204.7,200.3,208.7,202z M235.9,205.7v5.1l-4.9-0.1l-4.9-0.1l-1.1-2.8c-0.6-1.6-1.6-3.7-2.3-4.8c-0.6-1-1.2-2-1.2-2.1s3.2-0.2,7.2-0.2h7.2L235.9,205.7L235.9,205.7z"/><path fill="#000000" d="M31.4,93.3c-2.1,1.5-2.4,3.1-2.4,14s0.3,12.6,2.4,14c1.8,1.2,4.3,1,6-0.6l1.5-1.3l0.1-8.5l0.1-8.5l3.4-0.2c2.8-0.1,3.6-0.3,4.6-1.2c2.2-2.1,2-6-0.5-7.7C45.2,92.2,33,92.2,31.4,93.3z"/><path fill="#000000" d="M12.7,132.5c-3.3,1.7-3.6,5.7-0.7,8.3c1,0.9,1.8,0.9,21.4,1.1c13.7,0.1,20.9,0,22.1-0.4c3.6-1.1,4.8-5.1,2.3-7.9l-1.3-1.5l-21.2-0.1C16.7,131.8,13.9,131.9,12.7,132.5z"/><path fill="#000000" d="M22.1,152.4c-2.2,1.3-2.8,4.1-1.6,6.6c1.2,2.2,2.2,2.4,14.4,2.4h11.3l1.5-1.3c1.3-1.2,1.5-1.7,1.5-3.5c0-1.8-0.2-2.4-1.5-3.5l-1.5-1.3H34.7C24.9,151.7,23.1,151.8,22.1,152.4z"/></g></g></g>
</svg>