<?xml version="1.0" encoding="utf-8"?>
<!-- Svg Vector Icons : http://www.onlinewebfonts.com/icon -->
<!DOCTYPE svg PUBLIC "-//W3C//DTD SVG 1.1//EN" "http://www.w3.org/Graphics/SVG/1.1/DTD/svg11.dtd">
<svg version="1.1" xmlns="http://www.w3.org/2000/svg" xmlns:xlink="http://www.w3.org/1999/xlink" x="0px" y="0px" viewBox="0 0 256 256" enable-background="new 0 0 256 256" xml:space="preserve">
<metadata> Svg Vector Icons : http://www.onlinewebfonts.com/icon </metadata>
<g><g><path fill="#000000" d="M181.1,43.3c23.2,0,41.3,18.1,41.3,41.3c0,34.1-36.8,67.5-92.6,118.2l-0.5,0.4l-1.3,1.1l-1.6-1.4c-55.9-50.7-92.9-84.3-92.9-118.4c0-23.2,18.1-41.3,41.3-41.3c13.1,0,26.5,6.3,35.1,16.4l18,21.1l18-21.1C154.6,49.6,168,43.3,181.1,43.3 M181.1,19.7c-20.5,0-40.2,9.6-53.1,24.7c-12.9-15.1-32.6-24.7-53.1-24.7C38.6,19.7,10,48.3,10,84.6c0,44.6,40.1,80.9,100.9,136.1l17.1,15.6l17.1-15.5C205.9,165.6,246,129.3,246,84.6C246,48.3,217.4,19.7,181.1,19.7L181.1,19.7z"/></g></g>
</svg>